<?xml version="1.0" encoding="utf-8"?>
<!-- Generator: Adobe Illustrator 25.0.1, SVG Export Plug-In . SVG Version: 6.00 Build 0)  -->
<svg version="1.1" id="Layer_1" xmlns="http://www.w3.org/2000/svg" xmlns:xlink="http://www.w3.org/1999/xlink" x="0px" y="0px"
	 viewBox="0 0 2095.31 614.07" style="enable-background:new 0 0 2095.31 614.07;" xml:space="preserve">
<style type="text/css">
	.st0{fill:#2E4DA1;}
	.st1{fill:#E51E25;}
	.st2{fill:#E51E25;stroke:#FFFFFF;stroke-width:16;stroke-miterlimit:10;}
	.st3{fill:#E42127;}
	.st4{fill:#2F4EA0;}
</style>
<path class="st0" d="M655.58,329.7c12.73-23.38,20.06-44.51,24.43-60.32c4.36-15.78,10.69-39.41,9.29-70.44c0,0-0.2-4.33-0.57-8.49
	c-1.89-21.39-9.59-67.48-45.88-107.67c-7.03-7.78-51.64-56.2-120.35-57.67c-66.35-1.41-129.65,41.47-161.54,108.74
	c-5.57-14.46-16.86-38.28-39.17-60.55c-10.31-10.29-44.28-41.5-96.93-47.78c-75.58-9.02-128.82,40.8-137.72,49.43
	c-2.47,2.4-58.89,58.73-55.73,135.11c2.23,54.11,34.33,117.39,34.33,117.39c0.01,0,111.57,0.01,112.67,0.27c0,0,0.01,0,0.02,0
	c0,0,0.06,0.01,0.12,0c0.04-0.01,5-16.64,27.87-93.78c0.01-0.01,0.01-0.01,0.02-0.02c4.76-9.55,14.65-15.29,25.02-14.53
	c9.96,0.72,18.68,7.32,22.35,16.89c27.08,107.71,38.74,155.09,38.73,156.76c0,0.02,0,0.17,0.04,0.18
	c0.47,0.13,4.85-15.06,10.84-33.02c5.85-17.55,7.66-20.98,11.31-24.1c6.22-5.31,13.87-6.36,18.98-6.47
	c15.46-0.13,30.92-0.26,46.38-0.4c10.19-17.16,20.37-34.33,30.56-51.49c0.73-1.23,4.56-7.35,12.25-9.2
	c0.94-0.23,6.78-1.54,12.71,1.37c2.5,1.23,4.12,2.74,4.79,3.43c8.88,9.07,27.28,30.16,28.27,31.31
	c22.78-124.47,27.84-152.11,27.87-152.27c0,0,0,0,0,0l0,0c0.02-0.02,0.03-0.03,0.05-0.05c4.68-10.55,14.75-17.42,25.67-17.52
	c12.62-0.11,24.16,8.87,27.73,21.97c11.53,57.53,23.06,115.06,34.6,172.59C608.24,329.49,631.91,329.59,655.58,329.7z"/>
<path class="st1" d="M360.9,602.2c1.24,0.03,2.1-0.56,2.35-0.76c47.94-28.82,104.32-68.36,161.88-121.99
	c43.39-40.42,78.53-80.56,106.62-116.78c-18.85,0.07-37.69,0.14-56.54,0.21c-3.49-0.48-7.76-1.72-11.31-4.94
	c-3.97-3.61-5.62-8.24-6.16-11.12c-11.16-59.86-22.32-119.73-33.49-179.59c-9.94,52.21-19.88,104.42-29.82,156.63
	c-1.37,8.84-7.37,16.19-15.55,18.98c-11.66,3.99-21.23-3.5-21.91-4.05c-9.32-10.61-18.64-21.21-27.97-31.82
	c-8.08,14-16.15,28.01-24.23,42.01c-1.21,2.24-3.72,6.2-8.28,9.58c-4.8,3.55-9.51,4.71-12.01,5.15
	c-16.93,0.07-33.86,0.14-50.79,0.21c-7.31,24.07-12.27,41.51-15.55,53.34c-3.26,11.76-6.31,23.24-16.15,28.56
	c-2.14,1.16-8.18,3.96-15.35,2.13c-10.83-2.77-15.09-13.79-15.55-15.03c-13.3-57.58-26.61-115.15-39.91-172.73
	c-13.65,38.61-23.69,67.25-27.73,81.56c-0.9,3.17-3.04,11.1-9.96,16.75c-5.11,4.17-10.85,5.49-14.72,5.96
	c-29.82-0.06-59.65-0.13-89.47-0.19c34.35,43.03,79.25,92.27,136.57,141.15c46.9,39.99,92.28,71.36,132.61,95.83
	C358.72,601.44,359.58,602.17,360.9,602.2z"/>
<ellipse class="st2" cx="522.24" cy="101.73" rx="13.74" ry="14.01"/>
<g>
	<path class="st3" d="M917.57,181.84c0,22-16.91,39.86-37.74,39.86h-83.14v-31.77h83.14c4.27,0,7.66-3.57,7.66-8.08
		c0-4.51-3.38-8.08-7.66-8.08h-45.4c-10.5,0-19.94-4.51-26.7-11.66c-6.94-7.33-11.04-17.3-11.04-28.2
		c0-22.18,16.91-40.04,37.74-40.04h73.52l9.61,31.96H803.28l24.03,5.08c-0.36,0.94-0.53,1.88-0.53,3.01c0,4.51,3.38,8.08,7.66,8.08
		h45.4c10.5,0,19.94,4.51,26.7,11.66C913.47,160.78,917.57,170.75,917.57,181.84z"/>
	<path class="st4" d="M1052.87,189.92v31.77h-83.32c-20.83,0-37.74-17.86-37.74-39.86V133.9c0-22.18,16.91-40.04,37.74-40.04h72.46
		l10.86,31.96H943.21l21.72,4.51c-1.96,2.26-3.03,5.26-3.03,8.46v37.98c0,7.33,5.52,13.16,12.46,13.16H1052.87z"/>
	<path class="st4" d="M1108.06,93.85V221.7h-30.09v-95.88h-0.18l-10.68-31.96H1108.06z"/>
	<path class="st4" d="M1254.04,125.81h-121.06l-10.68-31.96h120.88L1254.04,125.81z M1170.9,221.7c-21.01,0-37.92-17.86-37.92-39.86
		v-39.86h99.34l10.86,31.77h-105.39l25.46,4.32c0.53,6.58,5.88,11.84,12.28,11.84h78.51v31.77H1170.9z"/>
	<path class="st4" d="M1400.2,93.85V221.7h-37.74l-53.23-74.83l-18.16-25.57c0,0,13.35,24.82,18.16,33.84v66.55h-30.09v-95.88
		l-10.86-31.96h40.95v0.19l60.88,85.35V93.85H1400.2z"/>
	<path class="st4" d="M1535.5,189.92v31.77h-83.32c-20.83,0-37.74-17.86-37.74-39.86V133.9c0-22.18,16.91-40.04,37.74-40.04h72.46
		l10.86,31.96h-109.66l21.72,4.51c-1.96,2.26-3.03,5.26-3.03,8.46v37.98c0,7.33,5.52,13.16,12.46,13.16H1535.5z"/>
	<path class="st4" d="M1681.48,125.81h-121.06l-10.68-31.96h120.88L1681.48,125.81z M1598.34,221.7
		c-21.01,0-37.92-17.86-37.92-39.86v-39.86h99.34l10.86,31.77h-105.39l25.46,4.32c0.53,6.58,5.88,11.84,12.28,11.84h78.51v31.77
		H1598.34z"/>
	<path class="st3" d="M928.43,390.82H807.37l-10.68-31.96h120.88L928.43,390.82z M845.29,486.7c-21.01,0-37.92-17.86-37.92-39.86
		v-39.86h99.34l10.86,31.77H812.18l25.46,4.32c0.53,6.58,5.88,11.84,12.28,11.84h78.51v31.77H845.29z"/>
	<path class="st4" d="M954.77,390.82l-21.01-31.96h36.85l21.01,31.96l0.18,0.38l-8.54,20.68l11.04-16.92l2.85-4.14l21.01-31.96
		h36.67l-21.01,31.96l-21.18,31.96l21.36,32.15l20.83,31.58v0.19h-36.5l-21.01-31.77l-0.89-1.32l8.19-18.61l-10.32,15.42l-2.85,4.51
		l-21.01,31.77h-36.67v-0.19l21.01-31.58l21.19-32.15L954.77,390.82z"/>
	<path class="st4" d="M1154.16,438.76h-78.33l25.28,3.2v44.75h-30.09v-79.71h83.14c2.14,0,4.09-0.94,5.52-2.44
		c1.42-1.5,2.31-3.38,2.31-5.64c0-4.51-3.56-8.08-7.83-8.08h-83.14l-10.86-31.77h94c10.5,0,19.94,4.32,26.88,11.66
		c6.76,7.14,11.04,17.11,11.04,28.2C1192.08,420.9,1175.17,438.76,1154.16,438.76z"/>
	<path class="st4" d="M1329.16,390.82h-121.06l-10.68-31.96h120.88L1329.16,390.82z M1246.03,486.7
		c-21.01,0-37.92-17.86-37.92-39.86v-39.86h99.34l10.86,31.77h-105.39l25.46,4.32c0.53,6.58,5.88,11.84,12.28,11.84h78.51v31.77
		H1246.03z"/>
	<path class="st4" d="M1466.07,486.7h-43.08l-37.03-37.98l-28.66-29.71l18.16,24.82v42.87h-30.09v-79.71h83.14
		c2.14,0,4.09-0.94,5.52-2.44c1.25-1.5,2.14-3.38,2.14-5.64c0-4.51-3.38-8.08-7.66-8.08h-83.14l-10.86-31.77h94
		c10.5,0,19.94,4.32,26.7,11.66c6.94,7.14,11.04,17.11,11.04,28.2c0,22-16.91,39.86-37.74,39.86h-9.08L1466.07,486.7z"/>
	<path class="st4" d="M1521.79,390.82l25.28,4.32v91.56h-30.09v-95.88h-34.54l-10.86-31.96h110.2l10.86,31.96H1521.79z"/>
	<path class="st4" d="M1718.86,446.84c0,22-16.91,39.86-37.74,39.86h-83.14v-31.77h83.14c4.27,0,7.66-3.57,7.66-8.08
		c0-4.51-3.38-8.08-7.66-8.08h-45.4c-10.5,0-19.94-4.51-26.7-11.66c-6.94-7.33-11.04-17.3-11.04-28.2
		c0-22.18,16.91-40.04,37.74-40.04h73.52l9.61,31.96h-114.29l24.03,5.08c-0.36,0.94-0.53,1.88-0.53,3.01c0,4.51,3.38,8.08,7.65,8.08
		h45.4c10.5,0,19.94,4.51,26.7,11.66C1714.77,425.78,1718.86,435.75,1718.86,446.84z"/>
	<path class="st3" d="M1903.48,454.92v31.77h-83.32c-20.83,0-37.74-17.86-37.74-39.86V398.9c0-22.18,16.91-40.04,37.74-40.04h72.46
		l10.86,31.96h-109.66l21.72,4.51c-1.96,2.26-3.03,5.26-3.03,8.46v37.98c0,7.33,5.52,13.16,12.46,13.16H1903.48z"/>
	<path class="st3" d="M1992.13,358.85c20.83,0,37.74,17.86,37.74,40.04v47.94c0,22-16.91,39.86-37.74,39.86h-45.57
		c-20.83,0-37.74-17.86-37.74-39.86V398.9c0-22.18,16.91-40.04,37.74-40.04H1992.13z M1999.79,403.79c0-7.14-5.52-12.97-12.46-12.97
		h-67.29l21.9,4.51c-1.78,2.26-3.03,5.26-3.03,8.46v37.98c0,7.33,5.7,13.16,12.46,13.16h35.96c6.94,0,12.46-5.83,12.46-13.16V403.79
		z"/>
	<path class="st4" d="M2057.65,454.92c4.27,0,7.66,3.57,7.66,8.08v15.42c0,4.51-3.38,8.27-7.66,8.27h-14.6
		c-4.27,0-7.83-3.76-7.83-8.27v-15.42c0-4.51,3.56-8.08,7.83-8.08H2057.65z"/>
</g>
</svg>
